<svg xmlns="http://www.w3.org/2000/svg" xmlns:xlink="http://www.w3.org/1999/xlink" id="Layer_1" x="0px" y="0px" width="112.9px" height="42.9px" viewBox="0 0 112.9 42.9" style="enable-background:new 0 0 112.9 42.9;" xml:space="preserve">
<style type="text/css">
	.st0{fill:#FFFFFF;}
	.st1{fill:#EF3652;}
</style>
<g>
	<path class="st0" d="M20.1,26.9c0.4,0,0.7,0.3,0.6,0.7l-0.4,3.4c0,0.3-0.3,0.6-0.7,0.6h-16c-0.3,0-0.5-0.3-0.4-0.6L5.9,5.1   c0-0.3,0.3-0.6,0.7-0.6h3.5c0.4,0,0.6,0.3,0.6,0.6L8.4,26.9L20.1,26.9L20.1,26.9z"></path>
	<path class="st0" d="M30.1,14.8c0.4,0,0.6,0.3,0.6,0.6L29,30.9c0,0.4-0.3,0.7-0.7,0.7H26c-1.1,0-1.6-0.7-1.5-1.7L26,15.5   c0-0.3,0.3-0.6,0.7-0.6H30.1z M29.2,9.5c1.4,0,2.7-1.1,2.8-2.5c0.2-1.4-0.8-2.5-2.2-2.5c-1.4,0-2.6,1.2-2.8,2.5S27.8,9.5,29.2,9.5z   "></path>
	<path class="st0" d="M34.9,26.9c0.4-0.4,0.6-0.5,1-0.3c0,0,1.9,1.3,3.9,1.3c1.1,0,1.8-0.6,1.9-1.3c0.1-0.9-0.6-1.3-2.8-1.9   c-2.8-0.8-4.5-2.5-4.2-4.9c0.3-2.6,2.5-5.1,6.6-5.1c2.4,0,3.8,0.7,5.3,1.6c0.4,0.2,0.5,0.7,0.3,1l-1.8,2.3   c-0.3,0.3-0.6,0.4-0.9,0.3c-0.5-0.2-1.8-1.1-3.2-1.1c-1.1,0-1.7,0.6-1.8,1.3c-0.1,0.8,0.9,1.2,2.4,1.6c2.9,0.8,5.5,2.1,5.1,5.1   c-0.3,2.8-3.2,5.2-7.2,5.2c-2.7,0-5.1-1.4-5.9-2c-0.2-0.2-0.3-0.5-0.1-0.8L34.9,26.9z"></path>
	<path class="st0" d="M59.7,30.4c0,0.3-0.2,0.5-0.4,0.7c-0.6,0.4-1.9,0.6-3.2,0.6c-3.7,0-5.3-1.7-4.8-6.2l0.7-6.2h-1.9   c-0.4,0-0.6-0.3-0.6-0.6l0.1-0.7c0-0.3,0.1-0.6,0.3-0.8c2.2-2.1,4.4-4.4,6.5-7.2c0.2-0.3,0.3-0.4,0.5-0.4h0.3   c0.3,0,0.4,0.2,0.4,0.5l-0.5,4.8h3c0.3,0,0.6,0.3,0.6,0.7l-0.3,3.2c0,0.4-0.4,0.7-0.7,0.7h-2.4c-0.3,0-0.5,0-0.6-0.1l-0.6,6   c-0.2,1.4,0.1,2.2,1.5,2.2c0.4,0,0.8-0.1,1.2-0.1c0.4-0.1,0.7,0.2,0.7,0.6L59.7,30.4L59.7,30.4z"></path>
	<path class="st0" d="M68.8,14.8c0.4,0,0.6,0.3,0.6,0.6l-1.6,15.4c0,0.4-0.3,0.7-0.7,0.7h-2.4c-1.1,0-1.6-0.7-1.5-1.7l1.5-14.4   c0-0.3,0.3-0.6,0.7-0.6H68.8z M67.9,9.5c1.4,0,2.7-1.1,2.8-2.5c0.2-1.4-0.8-2.5-2.2-2.5c-1.4,0-2.6,1.2-2.8,2.5   C65.6,8.4,66.5,9.5,67.9,9.5z"></path>
	<path class="st0" d="M88,5.4c0.3,0.2,0.3,0.5,0.2,0.8L86.7,9c-0.2,0.4-0.6,0.5-0.9,0.3c-0.4-0.1-1.3-0.6-2.4-0.6   c-1.1,0-2.6,0.7-2.8,2.4l-0.4,3.7h3.3c0.2,0,0.5,0.2,0.4,0.5l-0.3,3.4c0,0.3-0.3,0.5-0.6,0.5h-3.3l-1.3,11.8c0,0.4-0.3,0.7-0.7,0.7   h-2.4c-1.1,0-1.6-0.7-1.5-1.7l1.1-10.7H73c-0.3,0-0.5-0.2-0.4-0.4l0.3-2.7c0.1-0.8,0.6-1.2,1.4-1.2h1.4l0.4-3.7   c0.5-4.6,3.8-6.8,7.8-6.8C85.5,4.3,86.9,4.8,88,5.4L88,5.4z"></path>
	<path class="st0" d="M105.3,15.6l-7.9,13.3c-4.4,7.4-7.6,11.5-9.1,12.8c-0.4,0.3-0.9,0.2-1.3-0.3l-1.7-1.9   c-0.4-0.4-0.3-0.8,0.2-1.4c2.2-2.2,4.9-5.7,7-9.7l-5.5-13c-0.2-0.4,0-0.8,0.5-0.8h3.7c0.4,0,0.6,0.2,0.7,0.5l3.4,8.8l4.9-8.8   c0.2-0.3,0.4-0.5,0.8-0.5h3.7C105.4,14.8,105.6,15.2,105.3,15.6z"></path>
	<path class="st1" d="M104.8,28.7c0-1.7,1.4-3.1,3.1-3.1c1.7,0,3.1,1.4,3.1,3.1c0,1.7-1.4,3.1-3.1,3.1   C106.2,31.8,104.8,30.4,104.8,28.7z"></path>
</g>
</svg>